<svg xmlns="http://www.w3.org/2000/svg" viewBox="0 0 348.1 153.899">
  <defs>
    <style>
      .cls-1 {
        fill: #fff;
      }
    </style>
  </defs>
  <g id="Logo" transform="translate(-785 -53.662)">
    <path id="Path_9" data-name="Path 9" class="cls-1" d="M38.8-71.5q13.9,0,22.65,6.7A26.59,26.59,0,0,1,71.8-46.6H48.4a8.6,8.6,0,0,0-3.7-3.25A13.331,13.331,0,0,0,38.9-51q-6.4,0-9.9,4.15T25.5-35.5q0,8.3,3.9,12.4t12,4.1a14.814,14.814,0,0,0,12.4-6.2H36.1V-40.9H72.2v22.2A42.633,42.633,0,0,1,59.5-5.15Q51.4.5,39,.5A38.656,38.656,0,0,1,19.85-4.05,30.914,30.914,0,0,1,7.35-16.8,39.291,39.291,0,0,1,3-35.5,39.291,39.291,0,0,1,7.35-54.2,31,31,0,0,1,19.8-66.95,38.16,38.16,0,0,1,38.8-71.5Z" transform="translate(782 158)"/>
    <path id="Path_10" data-name="Path 10" class="cls-1" d="M70.5-70.8V0H48.3V-27.6H27.2V0H5V-70.8H27.2v25.5H48.3V-70.8Z" transform="translate(852 158)"/>
    <g id="_308957_1_" data-name="308957 (1)" transform="translate(875.829 1333.288)">
      <path id="Path_3" data-name="Path 3" class="cls-1" d="M884.3-1279.526c-3.7.759-5.915,1.819-8.047,3.819a14.46,14.46,0,0,0-4.048,7.409,16.683,16.683,0,0,0,.036,4.313,13.854,13.854,0,0,0,7.565,9.9,13.792,13.792,0,0,0,18.768-7.264,12.4,12.4,0,0,0-.494-10.673,14.168,14.168,0,0,0-6.409-6.192C889.3-1279.273,885.972-1279.876,884.3-1279.526Z" transform="translate(-766.876)"/>
      <path id="Path_4" data-name="Path 4" class="cls-1" d="M186.751-1107.234c-1.674.048-3.361.108-3.734.157-.6.06-4.023.361-7.9.675-1.7.145-3.012.265-6.2.59-4.385.458-7.987.807-12.227,1.217-5.144.482-9.95.831-15,1.084-1.289.06-3.132.193-4.1.3s-3.024.289-4.578.422c-4.216.361-5.156.47-7.469.8a50.746,50.746,0,0,0-5.782,1.108c-.277.109-.253.133.361.3a27.171,27.171,0,0,0,4.216.626c.891.1,3.036.337,4.758.542s4.144.47,5.361.6,3.4.385,4.819.542,3.409.385,4.4.482,2.313.241,2.927.3c2.747.289,3.493.361,5.867.6,1.4.132,3.819.349,5.4.482,2.951.241,3.361.289,6.891.711a155.848,155.848,0,0,0,20.924,1.337c5.168,0,6.878-.084,8.613-.434a17.188,17.188,0,0,0,3.337-1.036,8.284,8.284,0,0,0,2.662-2.915,3.189,3.189,0,0,0,.482-2.048c0-1.458-.253-1.976-1.614-3.325a9.415,9.415,0,0,0-4.108-2.457C192.967-1107.27,191.835-1107.354,186.751-1107.234Z" transform="translate(-105.035 -151.585)"/>
      <path id="Path_5" data-name="Path 5" class="cls-1" d="M918.479-1007.687a5.859,5.859,0,0,0-3.831,2.674,3.292,3.292,0,0,0-.4,1.951c-.133,3.6,1.144,6.638,5.276,12.54a64.233,64.233,0,0,1,4.554,6.987,13.333,13.333,0,0,1,1.229,3.481c0,.229-.3.506-1.409,1.3a111.272,111.272,0,0,1-10.456,6.638,41.641,41.641,0,0,1-6.625,2.759c-3.12,1.144-6.722,2.578-7.722,3.084a6.556,6.556,0,0,0-2.1,1.542c0,.084.337.2.867.289a18,18,0,0,0,4.3-.108c8.384-.626,12.613-1.229,17.3-2.421a33.656,33.656,0,0,0,10.36-4.313,17.6,17.6,0,0,0,4.361-4.3,12.915,12.915,0,0,0,1.108-3.855c.084-.6.2-1.53.277-2.06a7.712,7.712,0,0,0-.2-3.108,29.9,29.9,0,0,0-1.614-5.457c-.47-1.265-1.1-3.108-1.4-4.084a29.032,29.032,0,0,0-1.7-4.566,18.986,18.986,0,0,0-8.083-8.782,3.131,3.131,0,0,0-2.048-.422A9.236,9.236,0,0,0,918.479-1007.687Z" transform="translate(-788.794 -238.977)"/>
      <path id="Path_6" data-name="Path 6" class="cls-1" d="M443.026-774.687a16.162,16.162,0,0,0-7.264,3.3,75.749,75.749,0,0,0-9.745,10.01c-2.072,2.578-7.24,9.6-8.2,11.143a26.934,26.934,0,0,0-3.6,8.348,3.916,3.916,0,0,0-.06,1.891c.349,2.048,1.409,3.168,3.626,3.807a8.066,8.066,0,0,0,5.915-.675c1.626-.831,3.915-2.831,9.565-8.42a96.525,96.525,0,0,0,12.89-15.178c3.409-5.108,4.7-9.962,3.168-11.962-.325-.41-.663-.614-2.072-1.265a16.592,16.592,0,0,0-2.469-.952A3.3,3.3,0,0,0,443.026-774.687Z" transform="translate(-364.032 -444.03)"/>
      <path id="Path_7" data-name="Path 7" class="cls-1" d="M350.244-675.33a13.446,13.446,0,0,0-3.77,1.241c-4.276,2.12-7.131,4.891-12.227,11.829-.952,1.289-1.9,2.566-2.108,2.831-.578.723-4.517,6.4-7.324,10.553-4.71,6.987-8.228,12.456-17.407,27.032-3.216,5.108-7.168,11.36-8.794,13.914-2.759,4.337-4.457,7.168-6.011,10.059a26.607,26.607,0,0,0-1.6,3.433c0,.193.2.145.916-.193.542-.253.964-.651,2.506-2.373a123.838,123.838,0,0,1,10.589-10.251c5.939-5.156,8.107-7.18,16.467-15.431,2.494-2.445,7.119-6.975,10.288-10.059,10-9.709,14.046-14.13,18.9-20.659,3.879-5.2,6.348-9.794,7.312-13.552.807-3.144-.2-6.505-2.277-7.625A9.433,9.433,0,0,0,350.244-675.33Z" transform="translate(-255.795 -531.4)"/>
      <path id="Path_8" data-name="Path 8" class="cls-1" d="M12.944-356.8a14.212,14.212,0,0,0-11.022,7.565,14.584,14.584,0,0,0-1.554,4.891,6.82,6.82,0,0,0-.048,3.036c.108.8.3,1.819.422,2.289a14.256,14.256,0,0,0,15.9,10.468,14.275,14.275,0,0,0,11.372-18.732,14.336,14.336,0,0,0-9.9-9.155,21.665,21.665,0,0,0-3.855-.47C14.016-356.9,13.425-356.851,12.944-356.8Zm4.108,3.746a11.338,11.338,0,0,1,6.18,4.144,10.923,10.923,0,0,1,1.686,8.866,10.715,10.715,0,0,1-13.745,7.565,10.763,10.763,0,0,1-7.3-9.023,10.567,10.567,0,0,1,1.048-5.83,10.715,10.715,0,0,1,8.661-5.951A12.116,12.116,0,0,1,17.051-353.056Z" transform="translate(0 -811.56)"/>
    </g>
    <path id="Path_11" data-name="Path 11" class="cls-1" d="M25.1-55.1v11.7H48v14.9H25.1v12.8H51V0H5.4V-70.8H51v15.7ZM120.1,0H100.4l-26-39.5V0H54.7V-70.7H74.4l26,40v-40h19.7Z" transform="translate(1013 167)"/>
  </g>
</svg>
