<svg xmlns="http://www.w3.org/2000/svg" viewBox="0 0 33.006 33">
  <defs>
    <style>
      .cls-1 {
        fill: #fff;
      }
    </style>
  </defs>
  <path id="slack-hash-brands" class="cls-1" d="M32.887,49.635A2.682,2.682,0,0,0,29.5,47.948L26.154,49.06,23.922,42.43l3.345-1.112a2.672,2.672,0,1,0-1.694-5.069l-3.345,1.112L21.07,33.9a2.679,2.679,0,0,0-5.083,1.694l1.157,3.463-6.881,2.3L9.106,37.891a2.679,2.679,0,0,0-5.083,1.694l1.157,3.463L1.842,44.153A2.678,2.678,0,0,0,.147,47.535a2.763,2.763,0,0,0,2.475,1.812c.5.074.884-.118,4.251-1.238L9.106,54.74,5.761,55.853a2.687,2.687,0,0,0-1.694,3.382,2.763,2.763,0,0,0,2.475,1.812c.5.074.884-.118,4.251-1.238l1.157,3.463a2.737,2.737,0,0,0,3.389,1.687,2.678,2.678,0,0,0,1.694-3.382l-1.157-3.463,6.9-2.306,1.157,3.463a2.737,2.737,0,0,0,3.389,1.687,2.678,2.678,0,0,0,1.694-3.382l-1.157-3.463L31.2,53A2.655,2.655,0,0,0,32.887,49.635Zm-18.72,3.477-2.232-6.645,6.888-2.306,2.232,6.645-6.888,2.306Z" transform="translate(-0.016 -32.077)"/>
</svg>
