<svg xmlns="http://www.w3.org/2000/svg" viewBox="0 0 35.609 28.921">
  <defs>
    <style>
      .cls-1 {
        fill: #fff;
      }
    </style>
  </defs>
  <path id="twitter-brands" class="cls-1" d="M31.949,55.29c.023.316.023.633.023.949C31.971,65.886,24.628,77,11.207,77A20.624,20.624,0,0,1,0,73.727a15.1,15.1,0,0,0,1.762.09,14.616,14.616,0,0,0,9.06-3.118A7.311,7.311,0,0,1,4,65.638a9.2,9.2,0,0,0,1.378.113A7.718,7.718,0,0,0,7.3,65.5,7.3,7.3,0,0,1,1.446,58.34v-.09a7.35,7.35,0,0,0,3.3.926,7.309,7.309,0,0,1-2.259-9.761,20.744,20.744,0,0,0,15.048,7.637,8.239,8.239,0,0,1-.181-1.672,7.3,7.3,0,0,1,12.63-4.993,14.369,14.369,0,0,0,4.632-1.762,7.278,7.278,0,0,1-3.208,4.022,14.631,14.631,0,0,0,4.2-1.13A15.688,15.688,0,0,1,31.949,55.29Z" transform="translate(0 -48.082)"/>
</svg>
