<svg xmlns="http://www.w3.org/2000/svg" viewBox="0 0 36.063 36.054">
  <defs>
    <style>
      .cls-1 {
        fill: #fff;
      }
    </style>
  </defs>
  <path id="instagram-brands" class="cls-1" d="M17.96,40.608A9.244,9.244,0,1,0,27.2,49.852,9.229,9.229,0,0,0,17.96,40.608Zm0,15.254a6.01,6.01,0,1,1,6.01-6.01A6.021,6.021,0,0,1,17.96,55.862ZM29.738,40.23a2.156,2.156,0,1,1-2.156-2.156A2.151,2.151,0,0,1,29.738,40.23Zm6.122,2.188c-.137-2.888-.8-5.447-2.912-7.554s-4.666-2.768-7.554-2.912c-2.977-.169-11.9-.169-14.876,0-2.88.137-5.439.8-7.554,2.9S.2,39.522.052,42.41c-.169,2.977-.169,11.9,0,14.876.137,2.888.8,5.447,2.912,7.554s4.666,2.768,7.554,2.912c2.977.169,11.9.169,14.876,0,2.888-.137,5.447-.8,7.554-2.912s2.768-4.666,2.912-7.554c.169-2.977.169-11.891,0-14.868ZM32.015,60.48a6.084,6.084,0,0,1-3.427,3.427c-2.373.941-8,.724-10.628.724S9.7,64.84,7.333,63.907A6.084,6.084,0,0,1,3.905,60.48c-.941-2.373-.724-8-.724-10.628s-.209-8.262.724-10.628A6.084,6.084,0,0,1,7.333,35.8c2.373-.941,8-.724,10.628-.724s8.262-.209,10.628.724a6.084,6.084,0,0,1,3.427,3.427c.941,2.373.724,8,.724,10.628S32.957,58.115,32.015,60.48Z" transform="translate(0.075 -31.825)"/>
</svg>
